<svg xmlns="http://www.w3.org/2000/svg" width="1600" height="640" viewBox="0 0 1600 640" role="img" aria-label="decorative">
  <defs>
    <linearGradient id="g" x1="0" y1="0" x2="1" y2="1">
      <stop offset="0" stop-color="#c88a52"/><stop offset="1" stop-color="#7a4a1e"/>
    </linearGradient>
    <radialGradient id="glow" cx="0.5" cy="0.4" r="0.8">
      <stop offset="0" stop-color="#ffffff" stop-opacity="0.20"/>
      <stop offset="1" stop-color="#ffffff" stop-opacity="0"/>
    </radialGradient>
  </defs>
  <rect width="1600" height="640" fill="url(#g)"/>
  <rect width="1600" height="640" fill="url(#glow)"/>
  <g opacity="0.10" stroke="#fff" stroke-width="2" fill="none">
    <circle cx="1344.0" cy="128.0" r="76.8"/>
    <circle cx="224.00000000000003" cy="512.0" r="57.599999999999994"/>
  </g>
  <g fill="none" stroke="#f6e6d2" stroke-width="6" stroke-linecap="round" stroke-linejoin="round" opacity="0.9"><ellipse cx="710.4" cy="281.6" rx="43.52" ry="30.72" transform="rotate(0 710.4 281.6)"/><ellipse cx="800.0" cy="243.2" rx="43.52" ry="30.72" transform="rotate(30 800.0 243.2)"/><ellipse cx="889.6" cy="288.0" rx="43.52" ry="30.72" transform="rotate(60 889.6 288.0)"/><ellipse cx="748.8" cy="371.2" rx="43.52" ry="30.72" transform="rotate(90 748.8 371.2)"/><ellipse cx="857.6" cy="377.6" rx="43.52" ry="30.72" transform="rotate(120 857.6 377.6)"/><ellipse cx="800.0" cy="332.8" rx="43.52" ry="30.72" transform="rotate(150 800.0 332.8)"/></g>
</svg>