<svg xmlns="http://www.w3.org/2000/svg" width="600" height="600" viewBox="0 0 600 600" role="img" aria-label="Dry Fruit Combo Pack">
  <defs>
    <linearGradient id="g" x1="0" y1="0" x2="1" y2="1">
      <stop offset="0" stop-color="#c88a52"/>
      <stop offset="1" stop-color="#7a4a1e"/>
    </linearGradient>
    <radialGradient id="glow" cx="0.5" cy="0.4" r="0.7">
      <stop offset="0" stop-color="#ffffff" stop-opacity="0.18"/>
      <stop offset="1" stop-color="#ffffff" stop-opacity="0"/>
    </radialGradient>
  </defs>
  <rect width="600" height="600" fill="url(#g)"/>
  <rect width="600" height="600" fill="url(#glow)"/>
  <g opacity="0.10" stroke="#ffffff" stroke-width="2" fill="none">
    <circle cx="510.0" cy="108.0" r="70"/>
    <circle cx="72.0" cy="480.0" r="52"/>
    <circle cx="510.0" cy="108.0" r="40"/>
  </g>
  <g fill="none" stroke="#f6e6d2" stroke-width="6" stroke-linecap="round" stroke-linejoin="round" opacity="0.9"><ellipse cx="230.0" cy="222.0" rx="34.0" ry="24.0" transform="rotate(0 230.0 222.0)"/><ellipse cx="300.0" cy="192.0" rx="34.0" ry="24.0" transform="rotate(30 300.0 192.0)"/><ellipse cx="370.0" cy="227.0" rx="34.0" ry="24.0" transform="rotate(60 370.0 227.0)"/><ellipse cx="260.0" cy="292.0" rx="34.0" ry="24.0" transform="rotate(90 260.0 292.0)"/><ellipse cx="345.0" cy="297.0" rx="34.0" ry="24.0" transform="rotate(120 345.0 297.0)"/><ellipse cx="300.0" cy="262.0" rx="34.0" ry="24.0" transform="rotate(150 300.0 262.0)"/></g>
  <rect x="0" y="480" width="600" height="120" fill="rgba(0,0,0,0.28)"/>
  <text x="300.0" y="530" text-anchor="middle" font-family="Georgia, 'Times New Roman', serif" font-size="30.0" font-weight="600" fill="#ffffff">Dry Fruit Combo Pack</text>
  
</svg>